<svg xmlns="http://www.w3.org/2000/svg" version="1.1" xmlns:xlink="http://www.w3.org/1999/xlink" xmlns:svgjs="http://svgjs.dev/svgjs" width="1000" height="1000" viewBox="0 0 1000 1000"><rect width="1000" height="1000" fill="#000000"></rect><g transform="matrix(0.7,0,0,0.7,149.57575757575756,430.4034848030992)"><svg viewBox="0 0 396 79" data-background-color="#0093fb" preserveAspectRatio="xMidYMid meet" height="199" width="1000" xmlns="http://www.w3.org/2000/svg" xmlns:xlink="http://www.w3.org/1999/xlink"><g id="tight-bounds" transform="matrix(1,0,0,1,0.2400000000000091,-0.03033237218113527)"><svg viewBox="0 0 395.52 79.06066474436224" height="79.06066474436224" width="395.52"><g><svg viewBox="0 0 517.9603660232735 103.53532273724007" height="79.06066474436224" width="395.52"><g transform="matrix(1,0,0,1,122.44036602327355,14.309150971644613)"><svg viewBox="0 0 395.52 74.91702079395084" height="74.91702079395084" width="395.52"><g id="textblocktransform"><svg viewBox="0 0 395.52 74.91702079395084" height="74.91702079395084" width="395.52" id="textblock"><g><svg viewBox="0 0 395.52 74.91702079395084" height="74.91702079395084" width="395.52"><g transform="matrix(1,0,0,1,0,0)"><svg width="395.52" viewBox="0 -36.209999084472656 189.1800079345703 36.70000076293945" height="74.91702079395084" data-palette-color="#ffffff"><g class="undefined-text-0" data-fill-palette-color="primary" id="text-0"><path d="M31.64 0L27.34 0 22.9-11.35 8.59-11.35 4.2 0 0 0 14.11-35.84 17.6-35.84 31.64 0ZM10.06-15.09L21.61-15.09 17.46-26.15Q16.65-28.25 15.8-31.3L15.8-31.3Q15.26-28.96 14.26-26.15L14.26-26.15 10.06-15.09ZM56.69-9.5L56.69-9.5Q56.69-4.79 53.27-2.15 49.85 0.49 43.99 0.49L43.99 0.49Q37.64 0.49 34.23-1.15L34.23-1.15 34.23-5.15Q36.42-4.22 39.01-3.69 41.6-3.15 44.14-3.15L44.14-3.15Q48.29-3.15 50.39-4.72 52.49-6.3 52.49-9.11L52.49-9.11Q52.49-10.96 51.74-12.15 51-13.33 49.25-14.33 47.51-15.33 43.94-16.6L43.94-16.6Q38.96-18.38 36.83-20.83 34.69-23.27 34.69-27.2L34.69-27.2Q34.69-31.32 37.79-33.76 40.89-36.21 45.99-36.21L45.99-36.21Q51.32-36.21 55.78-34.25L55.78-34.25 54.49-30.64Q50.07-32.5 45.9-32.5L45.9-32.5Q42.6-32.5 40.74-31.08 38.89-29.66 38.89-27.15L38.89-27.15Q38.89-25.29 39.57-24.11 40.26-22.92 41.88-21.94 43.5-20.95 46.85-19.75L46.85-19.75Q52.46-17.75 54.58-15.45 56.69-13.16 56.69-9.5ZM86.79-35.69L90.94-35.69 90.94-12.6Q90.94-6.49 87.25-3 83.56 0.49 77.12 0.49L77.12 0.49Q70.67 0.49 67.15-3.03 63.62-6.54 63.62-12.7L63.62-12.7 63.62-35.69 67.77-35.69 67.77-12.4Q67.77-7.93 70.21-5.54 72.65-3.15 77.39-3.15L77.39-3.15Q81.9-3.15 84.35-5.55 86.79-7.96 86.79-12.45L86.79-12.45 86.79-35.69Z" fill="#ffffff" data-fill-palette-color="primary"></path><path d="M115.74-3.71L115.74 0 95.85 0 95.85-35.69 115.74-35.69 115.74-32.01 100-32.01 100-20.51 114.79-20.51 114.79-16.85 100-16.85 100-3.71 115.74-3.71ZM151.53-35.69L151.53 0 146.8 0 127.29-29.96 127.09-29.96Q127.49-24.68 127.49-20.29L127.49-20.29 127.49 0 123.65 0 123.65-35.69 128.34-35.69 147.8-5.86 147.99-5.86Q147.94-6.52 147.77-10.1 147.6-13.67 147.65-15.21L147.65-15.21 147.65-35.69 151.53-35.69ZM177.04-14.99L177.04-18.7 189.18-18.7 189.18-1.34Q186.35-0.44 183.42 0.02 180.49 0.49 176.63 0.49L176.63 0.49Q168.52 0.49 164.01-4.33 159.49-9.16 159.49-17.85L159.49-17.85Q159.49-23.41 161.72-27.6 163.96-31.79 168.16-34 172.36-36.21 178-36.21L178-36.21Q183.71-36.21 188.64-34.11L188.64-34.11 187.03-30.44Q182.19-32.5 177.73-32.5L177.73-32.5Q171.21-32.5 167.55-28.61 163.88-24.73 163.88-17.85L163.88-17.85Q163.88-10.62 167.41-6.88 170.94-3.15 177.78-3.15L177.78-3.15Q181.49-3.15 185.03-4L185.03-4 185.03-14.99 177.04-14.99Z" fill="#ffffff" data-fill-palette-color="accent"></path></g></svg></g></svg></g></svg></g></svg></g><g><svg viewBox="0 0 104.75425542232081 103.53532273724007" height="103.53532273724007" width="104.75425542232081"><g><svg xmlns="http://www.w3.org/2000/svg" xmlns:xlink="http://www.w3.org/1999/xlink" version="1.1" x="0" y="0" viewBox="2.000615119934082 2 60.70638656616211 60" style="enable-background:new 0 0 64 64;" xml:space="preserve" height="103.53532273724007" width="104.75425542232081" class="icon-icon-0" data-fill-palette-color="accent" id="icon-0"><path d="M3 49h1.074l0.929 12.077C5.043 61.598 5.478 62 6 62h26c0.522 0 0.957-0.402 0.997-0.923L33.926 49H35c0.279 0 0.546-0.117 0.736-0.323 0.189-0.206 0.284-0.481 0.261-0.76l-0.731-8.83c-0.176-4.061-3.071-7.513-7.039-8.395l-2.457-0.546-0.998-2.995C27.325 25.339 29 22.364 29 19c0-0.329-0.023-0.664-0.058-1H30h2v-2h-1v-1c0-5.081-3.255-9.617-8-11.298V3c0-0.552-0.448-1-1-1h-6c-0.552 0-1 0.448-1 1v0.702C10.255 5.383 7 9.919 7 15v1H6v2h2 1.058C9.023 18.336 9 18.671 9 19c0 3.364 1.675 6.339 4.229 8.152l-0.998 2.995-2.457 0.546c-3.968 0.881-6.863 4.333-7.037 8.355l-0.733 8.869c-0.023 0.279 0.072 0.554 0.261 0.76C2.454 48.883 2.721 49 3 49zM6.08 49H9v8 3H6.926L6.08 49zM27 60H11v-2h16V60zM31.074 60H29v-3-8h2.92L31.074 60zM24.789 36.817l-4.445-0.635 3.81-3.175L24.789 36.817zM9 15c0-3.992 2.41-7.586 6-9.157V13h2V4.425 4h4v0.425V13h2V5.843c3.59 1.571 6 5.165 6 9.157v1h-1.23H10.23 9V15zM11 19c0-0.328 0.022-0.662 0.066-1h15.867C26.978 18.338 27 18.672 27 19c0 2.933-1.592 5.496-3.953 6.889-2.465 1.451-5.63 1.451-8.095 0C12.592 24.496 11 21.933 11 19zM19 29c1.422 0 2.773-0.303 3.999-0.84l0.836 2.509L19 34.698l-4.835-4.029 0.836-2.509C16.227 28.697 17.578 29 19 29zM13.846 33.007l3.81 3.175-4.445 0.635L13.846 33.007zM4.732 39.174c0.137-3.159 2.389-5.843 5.475-6.529l1.736-0.386-0.929 5.576c-0.052 0.314 0.048 0.635 0.271 0.863 0.223 0.228 0.539 0.335 0.857 0.291L19 38.01l6.858 0.979c0.316 0.044 0.634-0.063 0.857-0.291 0.223-0.228 0.323-0.549 0.271-0.863l-0.929-5.576 1.736 0.386c3.086 0.686 5.337 3.371 5.477 6.568L33.914 47H29v-5h-2v14H11V42H9v5H4.086L4.732 39.174z" fill="#ffffff" data-fill-palette-color="accent"></path><rect x="18" y="40" width="2" height="2" fill="#ffffff" data-fill-palette-color="accent"></rect><rect x="18" y="44" width="2" height="2" fill="#ffffff" data-fill-palette-color="accent"></rect><rect x="18" y="48" width="2" height="2" fill="#ffffff" data-fill-palette-color="accent"></rect><path d="M59.46 23.874l1.833 1.833 1.414-1.414L60 21.586V17c0-0.552-0.448-1-1-1h-4.586L40.707 2.293l-1.414 1.414L42 6.414V15c-0.315 0-0.611 0.148-0.8 0.4L38.5 19H38c-0.552 0-1 0.448-1 1v5c0 0.552 0.448 1 1 1h10c0.552 0 1-0.448 1-1v-5c0-0.552-0.448-1-1-1h-0.5l-2.7-3.6C44.611 15.148 44.315 15 44 15V8.414l8.126 8.126C52.052 16.68 52 16.831 52 17v6c0 0.552 0.448 1 1 1v25h-2c-0.552 0-1 0.448-1 1v4c0 0.552 0.448 1 1 1h10c0.552 0 1-0.448 1-1v-4c0-0.552-0.448-1-1-1h-2V24C59.169 24 59.32 23.948 59.46 23.874zM47 24h-8v-3h8V24zM45 19h-4l1.5-2h1L45 19zM58 18v4h-4v-4H58zM55 42.697v-2.395l2 3v2.395L55 42.697zM55 34.303l2 3v2.395l-2-3V34.303zM57 33.697l-2-3v-2.395l2 3V33.697zM55 46.303L56.798 49H55V46.303zM60 53h-8v-2h2 4 2V53zM57 27.697l-2-3V24h2V27.697z" fill="#ffffff" data-fill-palette-color="accent"></path><path d="M48 54V32c0-0.552-0.448-1-1-1h-8c-0.552 0-1 0.448-1 1v22c0 0.552 0.448 1 1 1h8C47.552 55 48 54.552 48 54zM46 53h-6V33h6V53z" fill="#ffffff" data-fill-palette-color="accent"></path><rect x="42" y="36" width="2" height="2" fill="#ffffff" data-fill-palette-color="accent"></rect><rect x="42" y="40" width="2" height="2" fill="#ffffff" data-fill-palette-color="accent"></rect><rect x="42" y="44" width="2" height="2" fill="#ffffff" data-fill-palette-color="accent"></rect><rect x="42" y="48" width="2" height="2" fill="#ffffff" data-fill-palette-color="accent"></rect></svg></g></svg></g></svg></g><defs></defs></svg><rect width="395.52" height="79.06066474436224" fill="none" stroke="none" visibility="hidden"></rect></g></svg></g></svg>